<svg width="290" height="260" viewBox="0 0 290 260" fill="none" xmlns="http://www.w3.org/2000/svg">
<path d="M249.492 236.365H50.0439C46.1047 236.36 42.3282 234.786 39.5429 231.986C36.7575 229.186 35.1908 225.391 35.1864 221.432V46.3858C35.191 42.4269 36.7578 38.6314 39.5431 35.832C42.3285 33.0326 46.1049 31.4579 50.0439 31.4532H249.492C253.431 31.4577 257.208 33.0323 259.993 35.8317C262.779 38.6312 264.346 42.4267 264.35 46.3858V221.433C264.346 225.392 262.779 229.187 259.993 231.987C257.208 234.786 253.431 236.361 249.492 236.365Z" fill="white"/>
<path d="M202.365 78.8345H104.416C101.215 78.8345 98.6206 81.4423 98.6206 84.6591V183.102C98.6206 186.319 101.215 188.927 104.416 188.927H202.365C205.565 188.927 208.16 186.319 208.16 183.102V84.6591C208.16 81.4423 205.565 78.8345 202.365 78.8345Z" fill="#F2F2F2"/>
<path d="M249.492 236.836H50.0436C45.9803 236.831 42.0847 235.207 39.2115 232.319C36.3384 229.432 34.7222 225.516 34.7177 221.432V46.3854C34.7224 42.3017 36.3386 38.3866 39.2118 35.499C42.0849 32.6114 45.9804 30.9872 50.0436 30.9825H249.492C253.555 30.9871 257.451 32.6114 260.324 35.499C263.197 38.3867 264.813 42.302 264.818 46.3858V221.432C264.813 225.516 263.197 229.432 260.324 232.319C257.451 235.207 253.555 236.831 249.492 236.836ZM50.0436 31.9236C46.2288 31.9281 42.5715 33.4532 39.874 36.1644C37.1766 38.8755 35.6592 42.5513 35.6548 46.3854V221.432C35.659 225.267 37.1764 228.943 39.874 231.654C42.5716 234.366 46.2292 235.891 50.0443 235.895H249.492C253.307 235.891 256.965 234.366 259.663 231.655C262.361 228.943 263.878 225.267 263.882 221.432V46.3854C263.878 42.5511 262.361 38.8751 259.663 36.1639C256.965 33.4526 253.308 31.9276 249.493 31.9232L50.0436 31.9236Z" fill="#090814"/>
<path d="M12.7892 174.085C11.4631 174.08 10.18 173.612 9.15971 172.761C8.13945 171.91 7.44568 170.728 7.19738 169.419L0.104214 131.952C-0.177952 130.491 0.118391 128.976 0.930175 127.732C1.74196 126.487 3.00509 125.609 4.45074 125.286L36.2235 118.053C36.9634 117.885 37.7294 117.866 38.4766 117.999C39.2238 118.131 39.9372 118.412 40.575 118.825C41.2129 119.238 41.7624 119.775 42.1914 120.403C42.6204 121.032 42.9203 121.741 43.0736 122.488L50.8035 160.125C51.1027 161.605 50.8111 163.144 49.9918 164.409C49.1724 165.675 47.8909 166.566 46.4237 166.891L14.0131 173.952C13.6114 174.04 13.2014 174.085 12.7903 174.085L12.7892 174.085Z" fill="#F2F2F2"/>
<path d="M10.3472 140.335C9.9386 140.335 9.54479 140.181 9.24297 139.904C8.94115 139.627 8.7531 139.247 8.71569 138.838C8.67828 138.43 8.79421 138.021 9.04074 137.694C9.28728 137.366 9.64664 137.143 10.0483 137.068L35.7349 132.245C36.1606 132.168 36.5993 132.264 36.9553 132.511C37.3113 132.758 37.5556 133.137 37.635 133.564C37.7144 133.991 37.6225 134.433 37.3792 134.792C37.136 135.152 36.7611 135.4 36.3365 135.483L10.6514 140.306C10.5516 140.325 10.4502 140.335 10.3486 140.335H10.3472Z" fill="#9D5CFF"/>
<path d="M12.6885 150.216C12.2868 150.216 11.8991 150.068 11.5991 149.799C11.299 149.531 11.1074 149.161 11.0608 148.76C11.0141 148.359 11.1156 147.955 11.346 147.624C11.5763 147.294 11.9195 147.059 12.3103 146.966L36.4901 141.178C36.7005 141.124 36.9195 141.113 37.1343 141.146C37.349 141.178 37.5553 141.252 37.7411 141.365C37.9269 141.478 38.0885 141.627 38.2165 141.804C38.3445 141.98 38.4364 142.18 38.4868 142.392C38.5372 142.604 38.5451 142.825 38.5101 143.04C38.475 143.255 38.3978 143.462 38.2828 143.647C38.1678 143.832 38.0173 143.992 37.8401 144.118C37.663 144.244 37.4626 144.334 37.2507 144.382L13.0695 150.17C12.9448 150.2 12.8171 150.215 12.6889 150.215L12.6885 150.216Z" fill="#9D5CFF"/>
<path d="M14.3264 159.776C13.9214 159.776 13.5309 159.625 13.2302 159.352C12.9295 159.08 12.7398 158.705 12.6979 158.3C12.6559 157.895 12.7645 157.489 13.0028 157.16C13.2412 156.831 13.5923 156.602 13.9884 156.518L30.4846 153.007C30.6951 152.962 30.9123 152.96 31.1238 152.999C31.3353 153.039 31.537 153.12 31.7173 153.238C31.8977 153.356 32.0532 153.508 32.1749 153.686C32.2966 153.865 32.3822 154.065 32.4268 154.277C32.4713 154.488 32.474 154.707 32.4346 154.919C32.3953 155.132 32.3146 155.335 32.1973 155.516C32.08 155.697 31.9283 155.853 31.7509 155.976C31.5735 156.098 31.3739 156.184 31.1634 156.229L14.668 159.74C14.5557 159.764 14.4412 159.776 14.3264 159.776Z" fill="#9D5CFF"/>
<path d="M273.2 54.1559C272.904 54.1556 272.61 54.1324 272.318 54.0864L239.555 48.9203C238.803 48.8014 238.082 48.5325 237.435 48.1293C236.787 47.7261 236.227 47.1969 235.786 46.5727C235.346 45.9485 235.034 45.242 234.869 44.4948C234.704 43.7476 234.689 42.9748 234.826 42.2219L241.661 4.70546C241.923 3.24056 242.743 1.93616 243.947 1.06944C245.151 0.202713 246.644 -0.158 248.108 0.0639486L280.338 4.83979C281.088 4.95121 281.809 5.21183 282.458 5.6064C283.107 6.00097 283.671 6.52158 284.118 7.13782C284.564 7.75406 284.884 8.45356 285.059 9.19546C285.233 9.93736 285.259 10.7068 285.134 11.4588L278.831 49.3659C278.604 50.703 277.915 51.9168 276.884 52.7931C275.854 53.6694 274.549 54.152 273.2 54.1559Z" fill="#F2F2F2"/>
<path d="M274.487 21.1652C274.386 21.1652 274.285 21.1557 274.185 21.1368L248.497 16.3209C248.283 16.2834 248.079 16.2037 247.897 16.0864C247.714 15.9691 247.556 15.8166 247.433 15.6376C247.309 15.4586 247.222 15.2568 247.177 15.0437C247.131 14.8307 247.128 14.6107 247.168 14.3966C247.208 14.1824 247.289 13.9783 247.408 13.796C247.527 13.6138 247.68 13.457 247.86 13.3349C248.039 13.2127 248.241 13.1276 248.454 13.0844C248.666 13.0411 248.885 13.0407 249.098 13.0831L274.786 17.9001C275.187 17.9751 275.547 18.1981 275.793 18.5256C276.04 18.853 276.156 19.2612 276.118 19.6702C276.081 20.0791 275.893 20.4592 275.591 20.736C275.289 21.0127 274.895 21.1662 274.487 21.1663L274.487 21.1652Z" fill="#9D5CFF"/>
<path d="M272.062 29.7837C271.987 29.7838 271.912 29.7787 271.838 29.7684L247.208 26.3974C246.783 26.3324 246.4 26.1018 246.142 25.7556C245.885 25.4094 245.773 24.9752 245.831 24.5468C245.889 24.1184 246.112 23.7301 246.453 23.4658C246.793 23.2015 247.223 23.0824 247.651 23.1342L272.281 26.5052C272.692 26.5618 273.066 26.773 273.328 27.0962C273.59 27.4193 273.721 27.8303 273.693 28.2463C273.666 28.6623 273.482 29.0523 273.18 29.3376C272.877 29.6229 272.478 29.7823 272.064 29.7837H272.062Z" fill="#9D5CFF"/>
<path d="M262.177 38.6326C262.088 38.6323 262 38.625 261.913 38.6107L245.267 35.9023C245.053 35.8694 244.848 35.7943 244.663 35.6812C244.478 35.5681 244.317 35.4194 244.19 35.2435C244.062 35.0676 243.971 34.8681 243.921 34.6565C243.87 34.4449 243.862 34.2254 243.897 34.0107C243.932 33.7959 244.008 33.5902 244.122 33.4054C244.237 33.2206 244.386 33.0604 244.562 32.9339C244.738 32.8075 244.938 32.7174 245.149 32.6689C245.36 32.6203 245.578 32.6142 245.792 32.651L262.437 35.3584C262.846 35.4223 263.215 35.639 263.471 35.9649C263.727 36.2908 263.851 36.702 263.818 37.116C263.786 37.53 263.599 37.9163 263.295 38.1975C262.99 38.4788 262.592 38.6342 262.179 38.6326H262.177Z" fill="#9D5CFF"/>
<path d="M205.489 112.815C203.117 114.261 198.89 116.074 194.571 114.211L191.779 113.007L197.374 106.63C192.905 101.601 190.439 95.0935 190.445 88.3514C190.452 81.6093 192.932 75.1063 197.41 70.0866C201.852 65.0976 208.001 61.9727 214.632 61.3341C221.263 60.6956 227.89 62.5901 233.194 66.6406C238.523 70.7332 242.162 76.658 243.414 83.28C244.666 89.902 243.443 96.7554 239.979 102.527C236.564 108.279 231.121 112.529 224.732 114.435C218.343 116.341 211.474 115.762 205.489 112.815Z" fill="#9D5CFF"/>
<path d="M204.498 80.4392H230.109C230.6 80.4392 231.071 80.6353 231.418 80.9842C231.765 81.3332 231.96 81.8065 231.96 82.3C231.96 82.7935 231.765 83.2668 231.418 83.6158C231.071 83.9647 230.6 84.1608 230.109 84.1608H204.498C204.007 84.1608 203.536 83.9647 203.189 83.6158C202.842 83.2668 202.647 82.7935 202.647 82.3C202.647 81.8065 202.842 81.3332 203.189 80.9842C203.536 80.6353 204.007 80.4392 204.498 80.4392Z" fill="white"/>
<path d="M204.498 86.6417H230.109C230.6 86.6417 231.071 86.8378 231.418 87.1867C231.765 87.5357 231.96 88.009 231.96 88.5025C231.96 88.996 231.765 89.4693 231.418 89.8183C231.071 90.1673 230.6 90.3633 230.109 90.3633H204.498C204.007 90.3633 203.536 90.1673 203.189 89.8183C202.842 89.4693 202.647 88.996 202.647 88.5025C202.647 88.009 202.842 87.5357 203.189 87.1867C203.536 86.8378 204.007 86.6417 204.498 86.6417Z" fill="white"/>
<path d="M204.498 92.8439H221.469C221.96 92.8439 222.431 93.0399 222.778 93.3889C223.126 93.7379 223.321 94.2111 223.321 94.7047C223.321 95.1982 223.126 95.6715 222.778 96.0204C222.431 96.3694 221.96 96.5655 221.469 96.5655H204.498C204.007 96.5655 203.536 96.3694 203.189 96.0204C202.842 95.6715 202.647 95.1982 202.647 94.7047C202.647 94.2111 202.842 93.7379 203.189 93.3889C203.536 93.0399 204.007 92.8439 204.498 92.8439Z" fill="white"/>
<path d="M125.655 122.827C125.406 122.842 125.157 122.863 124.911 122.899C119.913 123.555 116.146 127.526 116.012 132.288C115.878 137.049 119.411 141.207 124.367 142.111C124.613 142.155 124.859 142.192 125.108 142.22C123.88 139.121 123.296 135.801 123.39 132.467C123.484 129.132 124.255 125.851 125.655 122.827Z" fill="#090814"/>
<path d="M153.238 164.208C169.888 164.208 183.385 150.643 183.385 133.909C183.385 117.176 169.888 103.611 153.238 103.611C136.589 103.611 123.092 117.176 123.092 133.909C123.092 150.643 136.589 164.208 153.238 164.208Z" fill="#090814"/>
<path d="M153.238 163.602C169.555 163.602 182.782 150.308 182.782 133.909C182.782 117.511 169.555 104.217 153.238 104.217C136.922 104.217 123.695 117.511 123.695 133.909C123.695 150.308 136.922 163.602 153.238 163.602Z" fill="white"/>
<path d="M181.125 122.827C181.374 122.842 181.623 122.863 181.869 122.899C186.867 123.555 190.634 127.526 190.768 132.288C190.902 137.049 187.369 141.203 182.413 142.109C182.167 142.153 181.921 142.19 181.672 142.219C182.899 139.119 183.483 135.8 183.389 132.466C183.295 129.131 182.525 125.851 181.125 122.827Z" fill="#090814"/>
<path d="M165.366 127.674H141.111C140.474 127.669 139.842 127.79 139.252 128.031C138.662 128.273 138.126 128.629 137.673 129.079C137.221 129.53 136.862 130.066 136.617 130.657C136.372 131.248 136.246 131.882 136.246 132.522C136.246 133.162 136.372 133.796 136.617 134.387C136.862 134.978 137.221 135.514 137.673 135.965C138.126 136.416 138.662 136.772 139.252 137.013C139.842 137.254 140.474 137.376 141.111 137.37H165.366C166.638 137.359 167.854 136.843 168.75 135.935C169.645 135.027 170.148 133.801 170.148 132.522C170.148 131.244 169.645 130.017 168.75 129.109C167.854 128.201 166.638 127.686 165.366 127.674Z" fill="#090814"/>
<path d="M172.07 148.719C171.454 148.277 170.716 148.039 169.96 148.036H156.129C155.166 148.036 154.242 148.421 153.56 149.106C152.879 149.79 152.496 150.719 152.496 151.688C152.496 152.656 152.879 153.585 153.56 154.269C154.242 154.954 155.166 155.339 156.129 155.339H169.96C170.207 155.34 170.453 155.315 170.695 155.266C170.936 155.214 171.172 155.139 171.399 155.043C171.99 154.787 172.503 154.377 172.885 153.857C173.267 153.336 173.504 152.722 173.573 152.079C173.641 151.435 173.538 150.785 173.274 150.195C173.01 149.605 172.594 149.095 172.07 148.72L172.07 148.719Z" fill="#090814"/>
<path d="M157.05 153.541C158.069 153.541 158.894 152.711 158.894 151.688C158.894 150.664 158.069 149.834 157.05 149.834C156.031 149.834 155.206 150.664 155.206 151.688C155.206 152.711 156.031 153.541 157.05 153.541Z" fill="#F1F1F1"/>
<path d="M163.044 153.541C164.062 153.541 164.888 152.711 164.888 151.688C164.888 150.664 164.062 149.834 163.044 149.834C162.025 149.834 161.199 150.664 161.199 151.688C161.199 152.711 162.025 153.541 163.044 153.541Z" fill="#F1F1F1"/>
<path d="M169.038 153.541C170.056 153.541 170.882 152.711 170.882 151.688C170.882 150.664 170.056 149.834 169.038 149.834C168.019 149.834 167.193 150.664 167.193 151.688C167.193 152.711 168.019 153.541 169.038 153.541Z" fill="#9D5CFF"/>
<path d="M250.471 260C249.497 259.997 248.555 259.655 247.804 259.032C247.053 258.41 246.54 257.546 246.351 256.586L239.007 218.517C238.891 217.914 238.908 217.293 239.055 216.697C239.203 216.101 239.478 215.545 239.862 215.067C240.245 214.59 240.728 214.202 241.277 213.931C241.825 213.66 242.425 213.513 243.036 213.499L278.524 212.732C279.517 212.705 280.488 213.036 281.26 213.665C282.033 214.294 282.556 215.179 282.736 216.162L289.696 253.081C289.807 253.671 289.792 254.279 289.65 254.863C289.509 255.447 289.245 255.994 288.876 256.467C288.507 256.94 288.041 257.328 287.511 257.606C286.981 257.883 286.397 258.044 285.8 258.076L250.697 259.993C250.621 259.997 250.546 260 250.471 260Z" fill="#F2F2F2"/>
<path d="M266.337 240.211C264.854 241.64 263.155 242.775 261.125 243.217L261.993 244.354C262.874 243.023 263.407 241.49 263.542 239.898C263.54 239.693 263.459 239.497 263.316 239.352C263.173 239.206 262.98 239.122 262.776 239.117C260.576 238.935 258.763 236.838 258.584 234.678C258.375 232.177 259.816 229.769 261.908 228.482C263.061 227.753 264.393 227.362 265.755 227.353C267.117 227.343 268.454 227.716 269.617 228.429C270.679 229.092 271.528 230.05 272.061 231.188C272.594 232.325 272.789 233.593 272.621 234.839C272.417 236.271 271.703 237.581 270.612 238.526C269.556 239.394 268.253 239.904 266.89 239.981C266.687 239.985 266.494 240.067 266.349 240.211C266.205 240.354 266.12 240.547 266.113 240.751C266.113 240.956 266.193 241.153 266.337 241.299C266.48 241.445 266.675 241.529 266.879 241.532C267.599 241.488 268.311 241.364 269.004 241.161C269.782 240.909 270.514 240.532 271.174 240.046C272.467 239.092 273.42 237.745 273.891 236.204C274.332 234.701 274.325 233.102 273.87 231.604C273.415 230.105 272.533 228.774 271.332 227.776C270.047 226.73 268.494 226.071 266.853 225.872C265.211 225.673 263.547 225.944 262.052 226.652C259.253 227.926 257.159 230.761 257.025 233.882C256.881 237.215 259.401 240.39 262.766 240.668L261.999 239.887C261.868 241.211 261.407 242.481 260.658 243.578C260.273 244.172 260.91 244.849 261.526 244.715C263.814 244.216 265.765 242.911 267.435 241.301C268.151 240.611 267.056 239.519 266.338 240.211L266.337 240.211Z" fill="#9D5CFF"/>
<path d="M262.232 233.63L262.322 232.701L261.164 233.367C261.992 233.876 262.919 234.409 263.927 234.374C264.41 234.379 264.884 234.242 265.291 233.982C265.698 233.721 266.021 233.347 266.221 232.905C266.249 232.835 266.374 232.473 266.377 232.474L266.08 232.639C265.963 232.599 265.964 232.609 266.085 232.669C266.138 232.719 266.193 232.766 266.25 232.811C266.444 232.998 266.68 233.135 266.939 233.207C267.198 233.28 267.471 233.287 267.733 233.227C268.853 232.925 269.121 231.771 269.151 230.759C269.18 229.759 267.636 229.751 267.608 230.748C267.6 231.018 267.635 231.448 267.436 231.665C267.322 231.789 267.311 231.683 267.179 231.573C266.861 231.266 266.436 231.097 265.995 231.101C265.752 231.123 265.521 231.217 265.331 231.37C265.14 231.523 264.999 231.729 264.923 231.962C264.821 232.22 264.797 232.449 264.579 232.615C264.402 232.733 264.199 232.804 263.988 232.821C263.244 232.885 262.536 232.393 261.935 232.022C261.817 231.957 261.685 231.923 261.551 231.924C261.417 231.925 261.286 231.961 261.17 232.028C261.053 232.095 260.956 232.191 260.887 232.306C260.819 232.422 260.781 232.553 260.777 232.688L260.687 233.617C260.688 233.822 260.768 234.019 260.911 234.165C261.055 234.311 261.249 234.395 261.454 234.398C261.657 234.396 261.851 234.314 261.996 234.171C262.141 234.028 262.226 233.834 262.232 233.63Z" fill="#9D5CFF"/>
<path d="M264.221 235.753C264.31 235.845 264.362 235.968 264.366 236.096C264.37 236.225 264.327 236.35 264.244 236.448C264.19 236.5 264.125 236.538 264.054 236.558C263.983 236.579 263.908 236.581 263.835 236.565C263.989 236.599 263.744 236.489 263.877 236.583C263.913 236.604 263.948 236.627 263.982 236.652C263.919 236.6 263.907 236.591 263.947 236.623C264.025 236.632 264.141 236.775 264.219 236.829C264.265 236.863 264.314 236.893 264.364 236.921C264.56 237.032 264.781 237.095 265.006 237.104C265.628 237.105 266.032 236.686 266.329 236.185C266.376 236.104 266.422 236.023 266.473 235.944C266.484 235.926 266.496 235.909 266.508 235.891C266.554 235.825 266.538 235.845 266.461 235.95C266.485 235.919 266.511 235.89 266.539 235.862C266.615 235.751 266.391 235.957 266.499 235.894C266.571 235.856 266.54 235.867 266.408 235.928C266.486 235.907 266.455 235.909 266.315 235.933L266.368 235.933C266.303 235.935 266.239 235.917 266.186 235.88C266.21 235.891 266.233 235.903 266.255 235.918C266.302 235.948 266.286 235.935 266.206 235.877C266.297 235.904 266.415 236.084 266.478 236.154C266.552 236.237 266.632 236.315 266.719 236.385C266.883 236.534 267.081 236.641 267.295 236.698C267.509 236.755 267.733 236.761 267.949 236.713C268.146 236.659 268.314 236.529 268.416 236.351C268.518 236.173 268.546 235.962 268.495 235.764C268.438 235.567 268.308 235.401 268.132 235.298C267.956 235.196 267.747 235.166 267.55 235.215C267.616 235.199 267.685 235.202 267.749 235.224C267.67 235.201 267.682 235.21 267.785 235.249C267.753 235.233 267.722 235.214 267.692 235.194C267.774 235.26 267.782 235.265 267.717 235.21C267.614 235.104 267.517 234.993 267.413 234.888C267.275 234.734 267.108 234.609 266.921 234.522C266.734 234.435 266.531 234.388 266.325 234.382C265.628 234.392 265.272 234.955 264.947 235.485C264.914 235.53 264.883 235.577 264.855 235.626C264.935 235.524 264.95 235.504 264.9 235.564C264.883 235.584 264.865 235.603 264.847 235.621C264.775 235.725 265.001 235.524 264.887 235.59C264.816 235.629 264.846 235.617 264.979 235.556C264.901 235.577 264.932 235.576 265.072 235.552C264.986 235.55 264.997 235.554 265.107 235.564C265.027 235.538 265.036 235.543 265.135 235.578C265.105 235.587 264.965 235.473 264.943 235.453C265.025 235.518 265.031 235.522 264.961 235.466L264.804 235.346C264.737 235.295 264.667 235.249 264.594 235.209C264.369 235.074 264.106 235.015 263.845 235.041C263.584 235.068 263.339 235.179 263.146 235.358C263.045 235.455 262.965 235.57 262.91 235.699C262.855 235.827 262.826 235.965 262.825 236.105C262.824 236.244 262.851 236.383 262.904 236.512C262.957 236.641 263.036 236.758 263.135 236.856C263.282 236.997 263.478 237.075 263.681 237.074C263.885 237.073 264.08 236.993 264.226 236.85C264.368 236.703 264.447 236.506 264.446 236.301C264.445 236.096 264.364 235.899 264.221 235.753Z" fill="#9D5CFF"/>
</svg>
