<svg width="496" height="248" viewBox="0 0 496 248" fill="none" xmlns="http://www.w3.org/2000/svg">
<g clip-path="url(#clip0_344_201)">
<path d="M295.218 237.23C294.973 237.489 294.718 237.744 294.461 238H265.076C264.835 237.751 264.596 237.496 264.358 237.23C264.348 237.221 264.339 237.208 264.329 237.198C261.137 233.648 259.127 228.487 257.874 223.045C257.793 222.715 257.722 222.382 257.651 222.046C257.323 220.516 257.055 218.971 256.836 217.438C256.798 217.173 256.759 216.908 256.727 216.643C256.43 214.441 256.231 212.274 256.102 210.24C256.086 209.979 256.07 209.723 256.054 209.468C255.818 205.418 255.815 201.359 256.047 197.31C256.047 197.31 256.086 197.31 256.16 197.313C256.376 197.323 256.894 197.345 257.658 197.391C259.761 197.52 263.73 197.843 268.397 198.606C268.652 198.648 268.91 198.694 269.167 198.739C273.115 199.394 277.01 200.34 280.819 201.571C281.057 201.652 281.292 201.733 281.531 201.814L281.534 201.83L284.456 216.546L285.667 203.447C286.63 203.883 287.567 204.349 288.466 204.847C288.717 204.986 288.962 205.125 289.204 205.267C291.258 206.436 293.123 207.912 294.735 209.645C304.318 220.306 302.266 229.835 295.218 237.23Z" fill="#F2F2F2"/>
<path d="M282.938 218.571L283.448 219.137C289.336 225.752 292.85 231.892 293.933 237.477C293.95 237.558 293.962 237.639 293.979 237.72L293.602 237.792L293.239 237.856C292.134 231.767 288.02 225.473 282.886 219.702C282.722 219.515 282.556 219.324 282.384 219.139C280.189 216.715 277.829 214.39 275.443 212.215C275.26 212.046 275.071 211.875 274.883 211.705C271.718 208.852 268.535 206.27 265.695 204.094C265.495 203.939 265.293 203.787 265.092 203.638C260.272 199.975 256.531 197.546 255.698 197.014C255.597 196.947 255.54 196.912 255.527 196.904L255.725 196.587L255.725 196.582L255.925 196.263C255.938 196.272 256.129 196.389 256.475 196.615C257.772 197.455 261.26 199.766 265.599 203.051C265.794 203.2 265.997 203.353 266.197 203.507C268.503 205.271 271.025 207.291 273.572 209.503C274.212 210.058 274.837 210.611 275.446 211.164C275.637 211.332 275.826 211.502 276.009 211.672C278.589 214.022 280.899 216.322 282.938 218.571Z" fill="white"/>
<path d="M268.675 197.979C268.588 198.189 268.494 198.399 268.397 198.606C267.662 200.205 266.721 201.699 265.598 203.052C265.434 203.246 265.266 203.444 265.093 203.638C264.622 204.158 264.122 204.662 263.591 205.148C261.421 207.12 258.849 208.594 256.054 209.468C255.963 209.497 255.877 209.526 255.786 209.552C255.802 209.807 255.818 210.059 255.835 210.321C255.925 210.296 256.012 210.27 256.102 210.241C259.068 209.343 261.798 207.794 264.094 205.707C264.655 205.198 265.19 204.659 265.695 204.094C265.869 203.903 266.036 203.706 266.197 203.508C267.398 202.061 268.397 200.456 269.167 198.739C269.258 198.532 269.348 198.325 269.435 198.115C269.177 198.07 268.923 198.024 268.675 197.979Z" fill="white"/>
<path d="M280.951 200.999C280.912 201.19 280.867 201.381 280.819 201.571C279.945 205.206 278.086 208.527 275.446 211.165C275.262 211.35 275.075 211.531 274.882 211.705C274.827 211.76 274.766 211.818 274.708 211.87C272.307 214.046 269.422 215.615 266.294 216.445C263.166 217.275 259.886 217.343 256.727 216.643C256.653 216.63 256.576 216.61 256.501 216.594C256.54 216.859 256.576 217.128 256.617 217.393C256.691 217.409 256.762 217.425 256.836 217.438C260.076 218.111 263.427 218.008 266.62 217.138C269.812 216.268 272.755 214.655 275.21 212.43C275.288 212.358 275.368 212.29 275.442 212.216C275.636 212.035 275.823 211.854 276.009 211.673C278.711 208.959 280.621 205.556 281.534 201.83C281.582 201.636 281.627 201.442 281.669 201.248C281.431 201.164 281.192 201.08 280.951 200.999Z" fill="white"/>
<path d="M288.466 204.301C288.469 204.482 288.469 204.666 288.466 204.847C288.412 209.957 286.438 214.858 282.938 218.57C282.758 218.764 282.571 218.951 282.384 219.139C282.181 219.336 281.978 219.534 281.769 219.721C278.528 222.653 274.435 224.461 270.093 224.88C265.75 225.299 261.388 224.305 257.651 222.046C257.587 222.012 257.525 221.976 257.464 221.936C257.542 222.279 257.619 222.615 257.703 222.951C257.761 222.984 257.816 223.016 257.874 223.045C261.719 225.197 266.139 226.088 270.514 225.593C274.889 225.098 279 223.241 282.272 220.284C282.481 220.093 282.69 219.902 282.887 219.702C283.08 219.517 283.264 219.33 283.447 219.136C286.996 215.379 289.045 210.443 289.204 205.267C289.21 205.093 289.213 204.918 289.213 204.744C288.969 204.592 288.717 204.446 288.466 204.301Z" fill="white"/>
<path d="M223.343 63.5395H166.718C166.247 63.539 165.795 63.3509 165.462 63.0164C165.129 62.6819 164.941 62.2285 164.941 61.7554V18.5964C164.941 18.1234 165.129 17.6699 165.462 17.3354C165.795 17.0009 166.247 16.8127 166.718 16.8121H236.223C236.694 16.8127 237.146 17.0009 237.479 17.3354C237.812 17.6699 237.999 18.1234 238 18.5964V48.8272C237.996 52.7278 236.45 56.4674 233.702 59.2255C230.954 61.9837 227.229 63.5351 223.343 63.5395Z" fill="white"/>
<path d="M223.343 63.7013H166.718C166.204 63.7007 165.711 63.4955 165.348 63.1307C164.985 62.7659 164.78 62.2714 164.78 61.7555V18.5964C164.78 18.0806 164.985 17.586 165.348 17.2212C165.711 16.8564 166.204 16.6511 166.718 16.6505H236.223C236.737 16.6511 237.229 16.8563 237.593 17.2211C237.956 17.5859 238.16 18.0806 238.161 18.5964V48.8272C238.157 52.7707 236.594 56.5514 233.816 59.3398C231.038 62.1283 227.272 63.6968 223.343 63.7013ZM166.718 17.2972C166.375 17.2976 166.046 17.4347 165.803 17.6782C165.561 17.9218 165.424 18.252 165.424 18.5964V61.7555C165.424 62.0999 165.561 62.4301 165.803 62.6737C166.046 62.9172 166.375 63.0542 166.718 63.0546H223.343C227.101 63.0503 230.704 61.55 233.361 58.8828C236.018 56.2156 237.513 52.5992 237.517 48.8272V18.5964C237.516 18.252 237.38 17.9218 237.137 17.6782C236.895 17.4347 236.566 17.2976 236.223 17.2972H166.718Z" fill="#CCCCCC"/>
<path d="M222.483 31.3877H180.457C180.071 31.3877 179.701 31.2339 179.429 30.96C179.156 30.6861 179.003 30.3147 179.003 29.9274C179.003 29.5401 179.156 29.1687 179.429 28.8949C179.701 28.621 180.071 28.4672 180.457 28.4672H222.483C222.869 28.4677 223.238 28.6218 223.511 28.8956C223.783 29.1694 223.936 29.5405 223.936 29.9274C223.936 30.3143 223.783 30.6854 223.511 30.9592C223.238 31.233 222.869 31.3871 222.483 31.3877Z" fill="#CCCCCC"/>
<path d="M222.483 41.4474H180.457C180.071 41.4474 179.701 41.2935 179.429 41.0197C179.156 40.7458 179.003 40.3744 179.003 39.9871C179.003 39.5998 179.156 39.2284 179.429 38.9546C179.701 38.6807 180.071 38.5269 180.457 38.5269H222.483C222.869 38.5269 223.239 38.6807 223.512 38.9546C223.785 39.2284 223.938 39.5998 223.938 39.9871C223.938 40.3744 223.785 40.7458 223.512 41.0197C223.239 41.2935 222.869 41.4474 222.483 41.4474Z" fill="#CCCCCC"/>
<path d="M222.483 51.7946H180.457C180.071 51.7946 179.701 51.6407 179.429 51.3669C179.156 51.093 179.003 50.7216 179.003 50.3343C179.003 49.947 179.156 49.5756 179.429 49.3017C179.701 49.0279 180.071 48.874 180.457 48.874H222.483C222.869 48.874 223.239 49.0279 223.512 49.3017C223.785 49.5756 223.938 49.947 223.938 50.3343C223.938 50.7216 223.785 51.093 223.512 51.3669C223.239 51.6407 222.869 51.7946 222.483 51.7946Z" fill="#CCCCCC"/>
<path d="M235.701 27.4405C240.499 27.4405 244.388 23.5363 244.388 18.7202C244.388 13.9042 240.499 10 235.701 10C230.903 10 227.013 13.9042 227.013 18.7202C227.013 23.5363 230.903 27.4405 235.701 27.4405Z" fill="#9D5CFF"/>
<path d="M234.516 23.2588C234.366 23.2588 234.218 23.2237 234.083 23.1563C233.949 23.089 233.833 22.9912 233.743 22.8707L231.373 19.6986C231.296 19.5967 231.241 19.4807 231.21 19.3573C231.178 19.234 231.171 19.1055 231.189 18.9794C231.207 18.8533 231.25 18.732 231.314 18.6224C231.379 18.5128 231.464 18.4171 231.566 18.3406C231.667 18.2642 231.783 18.2086 231.906 18.177C232.029 18.1454 232.157 18.1384 232.282 18.1564C232.408 18.1744 232.529 18.2171 232.638 18.282C232.747 18.3469 232.843 18.4328 232.919 18.5347L234.469 20.6098L238.452 14.6136C238.594 14.3995 238.815 14.2509 239.066 14.2005C239.318 14.15 239.579 14.2019 239.792 14.3446C240.005 14.4873 240.153 14.7092 240.203 14.9614C240.254 15.2137 240.202 15.4757 240.06 15.6897L235.32 22.8268C235.234 22.9559 235.119 23.0624 234.983 23.1375C234.848 23.2126 234.697 23.2541 234.543 23.2585C234.534 23.2586 234.525 23.2588 234.516 23.2588Z" fill="white"/>
<path d="M202.443 101.025H145.818C141.932 101.021 138.206 99.4693 135.459 96.7112C132.711 93.953 131.165 90.2134 131.161 86.3128V56.0819C131.162 55.6088 131.349 55.1553 131.682 54.8208C132.016 54.4863 132.467 54.2982 132.939 54.2976H202.443C202.914 54.2982 203.366 54.4863 203.699 54.8208C204.033 55.1553 204.22 55.6088 204.221 56.0819V99.2409C204.22 99.714 204.033 100.167 203.699 100.502C203.366 100.836 202.914 101.025 202.443 101.025Z" fill="white"/>
<path d="M202.443 101.187H145.818C141.889 101.182 138.123 99.6138 135.345 96.8253C132.567 94.0369 131.004 90.2562 131 86.3127V56.0818C131.001 55.5659 131.205 55.0713 131.568 54.7065C131.932 54.3417 132.425 54.1364 132.939 54.1359H202.443C202.957 54.1364 203.45 54.3417 203.813 54.7065C204.177 55.0713 204.381 55.5659 204.382 56.0818V99.2408C204.381 99.7568 204.177 100.251 203.813 100.616C203.45 100.981 202.957 101.186 202.443 101.187ZM132.939 54.7826C132.595 54.783 132.266 54.92 132.024 55.1636C131.781 55.4071 131.645 55.7373 131.644 56.0818V86.3127C131.648 90.0848 133.143 93.7011 135.8 96.3683C138.457 99.0355 142.06 100.536 145.818 100.54H202.443C202.786 100.54 203.115 100.403 203.358 100.159C203.6 99.9156 203.737 99.5853 203.737 99.2408V56.0818C203.737 55.7373 203.6 55.4071 203.358 55.1636C203.115 54.92 202.786 54.783 202.443 54.7826H132.939Z" fill="#CCCCCC"/>
<path d="M188.704 68.8732H146.678C146.292 68.8732 145.922 68.7193 145.649 68.4455C145.376 68.1716 145.223 67.8002 145.223 67.4129C145.223 67.0256 145.376 66.6542 145.649 66.3803C145.922 66.1065 146.292 65.9526 146.678 65.9526H188.704C189.09 65.9526 189.46 66.1065 189.732 66.3803C190.005 66.6542 190.159 67.0256 190.159 67.4129C190.159 67.8002 190.005 68.1716 189.732 68.4455C189.46 68.7193 189.09 68.8732 188.704 68.8732Z" fill="#CCCCCC"/>
<path d="M188.704 78.9329H146.678C146.292 78.9329 145.922 78.779 145.649 78.5052C145.376 78.2313 145.223 77.8599 145.223 77.4726C145.223 77.0853 145.376 76.7139 145.649 76.44C145.922 76.1662 146.292 76.0123 146.678 76.0123H188.704C189.09 76.0123 189.46 76.1662 189.732 76.44C190.005 76.7139 190.159 77.0853 190.159 77.4726C190.159 77.8599 190.005 78.2313 189.732 78.5052C189.46 78.779 189.09 78.9329 188.704 78.9329Z" fill="#CCCCCC"/>
<path d="M188.704 89.28H146.678C146.292 89.28 145.922 89.1262 145.649 88.8523C145.376 88.5785 145.223 88.2071 145.223 87.8198C145.223 87.4325 145.376 87.0611 145.649 86.7872C145.922 86.5133 146.292 86.3595 146.678 86.3595H188.704C189.09 86.3595 189.46 86.5133 189.732 86.7872C190.005 87.0611 190.159 87.4325 190.159 87.8198C190.159 88.2071 190.005 88.5785 189.732 88.8523C189.46 89.1262 189.09 89.28 188.704 89.28Z" fill="#CCCCCC"/>
<path d="M202.522 65.2723C207.32 65.2723 211.209 61.3681 211.209 56.552C211.209 51.736 207.32 47.8318 202.522 47.8318C197.724 47.8318 193.834 51.736 193.834 56.552C193.834 61.3681 197.724 65.2723 202.522 65.2723Z" fill="#9D5CFF"/>
<path d="M201.337 61.0906C201.187 61.0906 201.039 61.0555 200.904 60.9881C200.77 60.9208 200.654 60.823 200.564 60.7025L198.194 57.5304C198.117 57.4285 198.062 57.3125 198.031 57.1891C197.999 57.0657 197.992 56.9373 198.01 56.8112C198.028 56.6851 198.071 56.5638 198.135 56.4542C198.2 56.3446 198.285 56.2488 198.387 56.1724C198.488 56.096 198.604 56.0404 198.727 56.0088C198.85 55.9772 198.978 55.9702 199.103 55.9882C199.229 56.0062 199.35 56.0489 199.459 56.1138C199.568 56.1787 199.664 56.2646 199.74 56.3665L201.29 58.4416L205.273 52.4454C205.415 52.2313 205.636 52.0827 205.887 52.0323C206.139 51.9818 206.4 52.0336 206.613 52.1763C206.826 52.3191 206.974 52.541 207.024 52.7932C207.075 53.0455 207.023 53.3075 206.881 53.5215L202.141 60.6586C202.055 60.7877 201.94 60.8942 201.804 60.9693C201.669 61.0444 201.518 61.0859 201.363 61.0902C201.355 61.0904 201.346 61.0906 201.337 61.0906Z" fill="white"/>
<path d="M272.997 141.254H193.765C189.879 141.25 186.154 139.698 183.406 136.94C180.658 134.182 179.113 130.442 179.108 126.542V82.0766C179.109 81.4669 179.351 80.8823 179.78 80.4511C180.21 80.02 180.792 79.7774 181.4 79.7767H272.997C273.604 79.7774 274.186 80.02 274.616 80.4512C275.045 80.8823 275.287 81.4669 275.288 82.0766V138.954C275.287 139.564 275.045 140.148 274.616 140.579C274.186 141.011 273.604 141.253 272.997 141.254Z" fill="white"/>
<path d="M272.997 141.416H193.765C189.837 141.411 186.07 139.843 183.292 137.054C180.514 134.266 178.952 130.485 178.947 126.542V82.0767C178.948 81.4241 179.207 80.7984 179.666 80.3369C180.126 79.8754 180.749 79.6158 181.4 79.6151H272.997C273.647 79.6159 274.27 79.8755 274.73 80.337C275.189 80.7984 275.448 81.4241 275.449 82.0767V138.954C275.448 139.607 275.189 140.232 274.73 140.694C274.27 141.155 273.647 141.415 272.997 141.416ZM181.4 80.2618C180.92 80.2624 180.461 80.4538 180.122 80.794C179.783 81.1342 179.592 81.5955 179.592 82.0767V126.542C179.596 130.314 181.09 133.93 183.748 136.597C186.405 139.264 190.007 140.765 193.765 140.769H272.997C273.476 140.768 273.935 140.577 274.274 140.237C274.613 139.896 274.804 139.435 274.804 138.954V82.0767C274.804 81.5956 274.613 81.1343 274.274 80.794C273.935 80.4538 273.476 80.2624 272.997 80.2618H181.4Z" fill="#CCCCCC"/>
<path d="M254.89 98.9338H199.506C199.254 98.9341 199.004 98.8846 198.771 98.788C198.539 98.6915 198.327 98.5498 198.149 98.371C197.97 98.1923 197.829 97.9801 197.732 97.7464C197.636 97.5128 197.586 97.2623 197.586 97.0094C197.586 96.7565 197.636 96.506 197.732 96.2724C197.829 96.0387 197.97 95.8265 198.149 95.6477C198.327 95.469 198.539 95.3273 198.771 95.2307C199.004 95.1342 199.254 95.0846 199.506 95.085H254.89C255.142 95.0846 255.392 95.1342 255.625 95.2307C255.857 95.3273 256.069 95.469 256.247 95.6477C256.426 95.8265 256.567 96.0387 256.664 96.2724C256.76 96.506 256.81 96.7565 256.81 97.0094C256.81 97.2623 256.76 97.5128 256.664 97.7464C256.567 97.9801 256.426 98.1923 256.247 98.371C256.069 98.5498 255.857 98.6915 255.625 98.788C255.392 98.8846 255.142 98.9341 254.89 98.9338Z" fill="#CCCCCC"/>
<path d="M254.89 112.191H199.506C199.254 112.191 199.004 112.142 198.771 112.045C198.539 111.949 198.327 111.807 198.149 111.628C197.97 111.45 197.829 111.237 197.732 111.004C197.636 110.77 197.586 110.52 197.586 110.267C197.586 110.014 197.636 109.763 197.732 109.53C197.829 109.296 197.97 109.084 198.149 108.905C198.327 108.726 198.539 108.584 198.771 108.488C199.004 108.391 199.254 108.342 199.506 108.342H254.89C255.399 108.342 255.886 108.545 256.246 108.906C256.605 109.267 256.807 109.756 256.807 110.267C256.807 110.777 256.605 111.266 256.246 111.627C255.886 111.988 255.399 112.191 254.89 112.191Z" fill="#CCCCCC"/>
<path d="M254.89 125.827H199.506C198.997 125.827 198.51 125.624 198.15 125.263C197.791 124.903 197.589 124.413 197.589 123.903C197.589 123.392 197.791 122.903 198.15 122.542C198.51 122.181 198.997 121.978 199.506 121.978H254.89C255.142 121.978 255.392 122.027 255.625 122.124C255.857 122.221 256.069 122.362 256.247 122.541C256.426 122.72 256.567 122.932 256.664 123.166C256.76 123.399 256.81 123.65 256.81 123.903C256.81 124.156 256.76 124.406 256.664 124.64C256.567 124.873 256.426 125.086 256.247 125.264C256.069 125.443 255.857 125.585 255.625 125.681C255.392 125.778 255.142 125.827 254.89 125.827Z" fill="#CCCCCC"/>
<path d="M273.284 94.2965C279.358 94.2965 284.281 89.3543 284.281 83.2578C284.281 77.1612 279.358 72.219 273.284 72.219C267.211 72.219 262.287 77.1612 262.287 83.2578C262.287 89.3543 267.211 94.2965 273.284 94.2965Z" fill="#9D5CFF"/>
<path d="M271.784 89.0029C271.594 89.0029 271.407 88.9585 271.237 88.8733C271.067 88.788 270.919 88.6642 270.806 88.5116L267.805 84.4962C267.709 84.3672 267.639 84.2204 267.599 84.0642C267.559 83.908 267.55 83.7454 267.573 83.5858C267.596 83.4262 267.65 83.2726 267.731 83.1339C267.813 82.9951 267.922 82.8739 268.05 82.7772C268.179 82.6804 268.325 82.61 268.48 82.57C268.636 82.53 268.798 82.5211 268.957 82.544C269.116 82.5668 269.269 82.6208 269.407 82.7029C269.546 82.7851 269.666 82.8938 269.763 83.0228L271.725 85.6496L276.767 78.0592C276.947 77.7887 277.227 77.601 277.544 77.5374C277.862 77.4738 278.192 77.5394 278.462 77.7199C278.732 77.9004 278.919 78.181 278.983 78.5C279.047 78.8191 278.982 79.1505 278.802 79.4214L272.802 88.4561C272.693 88.6195 272.547 88.7543 272.376 88.8494C272.205 88.9445 272.014 88.997 271.818 89.0025C271.807 89.0027 271.795 89.0029 271.784 89.0029Z" fill="white"/>
<path d="M301.774 229.187L297.3 230.689L289.399 214.081L296.003 211.864L301.774 229.187Z" fill="#FFB6B6"/>
<path d="M304.365 233.158L289.939 237.031L289.878 236.847C289.376 235.342 289.489 234.7 290.195 233.28C290.54 232.58 291.02 231.956 291.607 231.444C292.194 230.932 292.877 230.541 293.615 230.296L293.615 230.296L295.582 227.404L301.167 227.761L302.426 227.338L304.365 233.158Z" fill="#2F2E41"/>
<path d="M312.828 233.41H308.11L305.866 215.144L312.829 215.144L312.828 233.41Z" fill="#FFB6B6"/>
<path d="M314.031 237.031L298.819 237.03V236.837C298.819 235.249 299.435 234.727 300.554 233.604C301.102 233.051 301.754 232.612 302.473 232.313C303.192 232.014 303.962 231.861 304.74 231.864H304.74L307.519 229.748L312.703 231.864L314.031 231.864L314.031 237.031Z" fill="#2F2E41"/>
<path d="M276.923 87.0593C277.02 87.5554 277.225 88.0241 277.522 88.4324C277.819 88.8407 278.202 89.1787 278.643 89.4224C279.084 89.6662 279.573 89.8099 280.076 89.8433C280.579 89.8768 281.082 89.7992 281.552 89.6161L286.998 95.3238L291.261 92.8475L283.457 84.8955C283.098 84.1241 282.47 83.5116 281.691 83.1741C280.913 82.8366 280.038 82.7975 279.232 83.0642C278.427 83.331 277.747 83.885 277.322 84.6213C276.896 85.3576 276.754 86.225 276.923 87.0593Z" fill="#FFB6B6"/>
<path d="M312.171 115.758L314.626 113.209L300.427 100.008L286.137 87.2L282.179 92.8139L297.154 106.845L312.171 115.758Z" fill="#E4E4E4"/>
<path d="M303.447 202.384C303.447 199.18 303.51 196.894 303.56 195.057C303.709 189.682 303.749 188.237 301.7 178.981L301.173 176.604L298.07 185.949C297.079 188.931 296.572 192.053 296.57 195.196L301.355 224.017H291.574L284.411 192.859L284.408 183.328C283.777 182.672 283.424 181.796 283.424 180.885C283.424 179.973 283.777 179.097 284.408 178.441L286.788 164.163L289.197 144.919H315.581C315.581 144.919 320.237 154.607 315.61 164.217L315.61 202.396L313.219 228.794H305.838L303.447 202.384Z" fill="#2F2E41"/>
<path d="M313.968 147.248L289.289 145.184L289.161 145.173L291.13 109.588C291.246 107.35 292.028 105.199 293.375 103.413C294.723 101.627 296.573 100.287 298.687 99.5684V97.078C298.688 96.4616 298.932 95.8707 299.366 95.4349C299.8 94.999 300.389 94.7539 301.003 94.7532H304.609C305.039 94.7517 305.461 94.8714 305.828 95.0985C306.194 95.3257 306.489 95.6512 306.68 96.0383L308.444 99.5782L315.111 104.933C318.404 107.577 315.754 134.091 315.611 135.49L317.224 143.584C317.313 144.029 317.302 144.488 317.193 144.929C317.083 145.369 316.878 145.78 316.592 146.132C316.305 146.483 315.945 146.767 315.537 146.962C315.128 147.157 314.682 147.258 314.229 147.259C314.143 147.259 314.056 147.255 313.968 147.248Z" fill="#E4E4E4"/>
<path d="M287.833 156.644C288.223 156.324 288.539 155.923 288.757 155.467C288.976 155.012 289.093 154.514 289.099 154.008C289.105 153.502 289.001 153.002 288.793 152.541C288.586 152.08 288.28 151.671 287.898 151.341L290.347 143.829L286.162 141.222L282.853 151.879C282.344 152.56 282.102 153.405 282.172 154.253C282.243 155.102 282.62 155.895 283.234 156.482C283.848 157.069 284.655 157.41 285.503 157.44C286.351 157.47 287.18 157.187 287.833 156.644Z" fill="#FFB6B6"/>
<path d="M296.439 105.578L293.042 104.441L288.135 126.419L283.615 148.275L290.413 149.279L295.684 126.04L296.439 105.578Z" fill="#E4E4E4"/>
<path d="M300.15 92.4785C304.626 92.4785 308.255 88.8358 308.255 84.3423C308.255 79.8489 304.626 76.2062 300.15 76.2062C295.673 76.2062 292.044 79.8489 292.044 84.3423C292.044 88.8358 295.673 92.4785 300.15 92.4785Z" fill="#FFB6B6"/>
<path d="M289.244 80.358C289.319 79.5869 289.539 78.8371 289.892 78.1486C290.271 78.9757 291.453 79.1192 292.262 78.7076C293.071 78.2959 293.613 77.5141 294.191 76.8126C295.717 74.9617 297.815 73.4603 300.192 73.1869C302.57 72.9134 305.19 74.1181 306.089 76.3446C306.492 75.7828 307.352 75.7203 307.96 76.0468C308.548 76.4188 309.007 76.9642 309.273 77.6082C309.872 78.8405 310.21 80.1837 310.267 81.5535C310.323 82.9232 310.097 84.29 309.603 85.5679C308.602 88.111 306.13 91.5372 303.579 92.497C302.03 93.0798 300.466 92.3339 298.819 92.497C298.905 90.6928 299.254 88.4667 299.34 86.6624C299.387 85.6743 299.394 84.5689 298.722 83.8456C298.516 83.6491 298.269 83.5004 297.999 83.4102C297.729 83.32 297.443 83.2904 297.161 83.3235C296.878 83.3566 296.606 83.4516 296.365 83.6017C296.123 83.7519 295.917 83.9536 295.761 84.1925C295.678 83.6316 295.489 83.0916 295.205 82.6013C295.059 82.3582 294.849 82.1609 294.597 82.0315C294.346 81.9022 294.063 81.8459 293.781 81.8692C293.094 81.9823 292.669 82.6909 292.038 82.9877C291.679 83.1319 291.286 83.1627 290.909 83.0761C290.533 82.9894 290.192 82.7895 289.932 82.5029C289.679 82.2103 289.488 81.8695 289.37 81.5009C289.252 81.1323 289.209 80.7436 289.244 80.358Z" fill="#2F2E41"/>
<path opacity="0.1" d="M301.199 125.941L291.68 145.052H298.819L301.199 125.941Z" fill="black"/>
<path d="M365 237.615C365 237.666 364.99 237.716 364.971 237.763C364.952 237.809 364.924 237.852 364.888 237.888C364.852 237.923 364.81 237.952 364.764 237.971C364.717 237.99 364.667 238 364.617 238H182.844C182.742 238 182.645 237.96 182.573 237.887C182.501 237.815 182.461 237.717 182.461 237.615C182.461 237.513 182.501 237.415 182.573 237.343C182.645 237.271 182.742 237.23 182.844 237.23H364.617C364.667 237.23 364.717 237.24 364.764 237.259C364.81 237.279 364.852 237.307 364.888 237.343C364.924 237.379 364.952 237.421 364.971 237.468C364.99 237.515 365 237.565 365 237.615Z" fill="#CACACA"/>
</g>
<defs>
<clipPath id="clip0_344_201">
<rect width="234" height="228" fill="white" transform="translate(131 10)"/>
</clipPath>
</defs>
</svg>
