<svg width="570" height="281" viewBox="0 0 570 281" fill="none" xmlns="http://www.w3.org/2000/svg">
<g clip-path="url(#clip0_368_830)">
<path d="M443.622 132.022H132.265V279.118H443.622V132.022Z" fill="#E6E6E6"/>
<path d="M434.719 144.636H141.168V267.363H434.719V144.636Z" fill="white"/>
<path d="M385.628 167.479H378.026V175.047H385.628V167.479Z" fill="#E6E6E6"/>
<path d="M182.872 167.479H175.27V175.047H182.872V167.479Z" fill="#9D5CFF"/>
<path d="M200.389 189.157H175.05V214.385H200.389V189.157Z" fill="#E6E6E6"/>
<path d="M443.489 123.523H132.132V136.693H443.489V123.523Z" fill="black"/>
<path d="M141.962 135.47C143.316 135.47 144.413 134.378 144.413 133.03C144.413 131.681 143.316 130.589 141.962 130.589C140.608 130.589 139.51 131.681 139.51 133.03C139.51 134.378 140.608 135.47 141.962 135.47Z" fill="white"/>
<path d="M151.267 135.47C152.621 135.47 153.719 134.378 153.719 133.03C153.719 131.681 152.621 130.589 151.267 130.589C149.913 130.589 148.816 131.681 148.816 133.03C148.816 134.378 149.913 135.47 151.267 135.47Z" fill="white"/>
<path d="M160.573 135.47C161.927 135.47 163.025 134.378 163.025 133.03C163.025 131.681 161.927 130.589 160.573 130.589C159.219 130.589 158.122 131.681 158.122 133.03C158.122 134.378 159.219 135.47 160.573 135.47Z" fill="white"/>
<path d="M491 279.119H79V280H491V279.119Z" fill="#E6E6E6"/>
<path d="M288.748 191.681H226.669V195.229H288.748V191.681Z" fill="#E6E6E6"/>
<path d="M322.533 204.623H226.669V208.171H322.533V204.623Z" fill="#9D5CFF"/>
<path d="M304.795 216.815H226.669V220.363H304.795V216.815Z" fill="#E6E6E6"/>
<path d="M272.278 228.963H226.669V232.511H272.278V228.963Z" fill="#E6E6E6"/>
<path d="M295.505 241.11H226.669V244.658H295.505V241.11Z" fill="#E6E6E6"/>
<path d="M398.72 167.479H391.118V175.047H398.72V167.479Z" fill="#E6E6E6"/>
<path d="M411.811 167.479H404.21V175.047H411.811V167.479Z" fill="#E6E6E6"/>
<path opacity="0.997" d="M396.373 232.51C404.899 232.51 411.811 225.629 411.811 217.141C411.811 208.652 404.899 201.771 396.373 201.771C387.847 201.771 380.936 208.652 380.936 217.141C380.936 225.629 387.847 232.51 396.373 232.51Z" fill="#9D5CFF"/>
<path d="M162.413 42.6172C172.012 42.6172 179.793 34.8702 179.793 25.3137C179.793 15.7573 172.012 8.01025 162.413 8.01025C152.814 8.01025 145.033 15.7573 145.033 25.3137C145.033 34.8702 152.814 42.6172 162.413 42.6172Z" fill="#2F2E41"/>
<path d="M119.161 173.365H111.55L107.929 144.142H119.161L119.161 173.365Z" fill="#FEB8B8"/>
<path d="M106.116 171.199H120.792V180.4H96.8757C96.8757 177.96 97.8493 175.619 99.5822 173.894C101.315 172.169 103.666 171.199 106.116 171.199Z" fill="#2F2E41"/>
<path d="M107.282 169.136L100.022 166.868L105.356 137.905L116.071 141.254L107.282 169.136Z" fill="#FEB8B8"/>
<path d="M95.4827 163.183L109.486 167.558L106.719 176.336L83.8997 169.206C84.263 168.054 84.8508 166.983 85.6296 166.057C86.4084 165.13 87.3628 164.366 88.4384 163.806C89.5141 163.247 90.6898 162.904 91.8985 162.797C93.1073 162.69 94.3253 162.821 95.4831 163.183L95.4827 163.183Z" fill="#2F2E41"/>
<path d="M109.758 157.475C109.426 157.475 109.096 157.415 108.785 157.299L103.185 155.209C102.556 154.972 102.034 154.518 101.713 153.93C101.393 153.342 101.295 152.659 101.438 152.005C102.847 145.696 107.651 124.214 110.282 112.692C113.401 99.0253 158.909 96.4857 160.845 96.3843L161.004 96.376L166.124 102.778C167.974 108.698 167.387 113.316 164.381 116.503C155.609 125.802 129.418 120.031 126.295 119.301L112.375 155.684C112.172 156.211 111.814 156.664 111.347 156.984C110.88 157.304 110.326 157.475 109.76 157.475H109.758Z" fill="#2F2E41"/>
<path d="M117.828 161.801C117.495 161.801 117.165 161.742 116.854 161.625L111.255 159.535C110.627 159.298 110.105 158.844 109.784 158.256C109.463 157.668 109.366 156.985 109.509 156.331C110.918 150.022 115.722 128.54 118.352 117.018C121.472 103.351 166.98 100.811 168.916 100.71L169.075 100.702L174.193 107.106C176.043 113.026 175.456 117.643 172.45 120.83C163.678 130.127 137.487 124.359 134.364 123.629L120.442 160.01C120.24 160.537 119.881 160.99 119.414 161.31C118.947 161.63 118.394 161.801 117.827 161.801L117.828 161.801Z" fill="#2F2E41"/>
<path d="M101.63 72.7972C101.836 73.0711 102.02 73.3607 102.18 73.6634L132.793 76.8744L137.201 70.8585L147.188 76.2933L138.533 90.891L100.988 81.3601C100.041 82.2796 98.8346 82.8901 97.5303 83.1106C96.226 83.3311 94.8852 83.151 93.6862 82.5943C92.4872 82.0376 91.4869 81.1306 90.8182 79.9941C90.1496 78.8576 89.8443 77.5453 89.943 76.2318C90.0417 74.9183 90.5397 73.6658 91.3707 72.641C92.2018 71.6162 93.3265 70.8675 94.5954 70.4946C95.8642 70.1217 97.217 70.1423 98.4738 70.5535C99.7306 70.9647 100.832 71.7471 101.631 72.7967L101.63 72.7972Z" fill="#FEB8B8"/>
<path d="M172.772 109.557C172.329 109.556 171.893 109.45 171.5 109.249C165.378 106.15 153.458 100.783 142.404 99.6597C142.026 99.6228 141.66 99.5075 141.329 99.3213C140.998 99.1351 140.71 98.8821 140.483 98.5785C140.251 98.2716 140.086 97.9206 139.997 97.5474C139.908 97.1741 139.897 96.7866 139.965 96.409C140.963 90.9117 143.251 76.9131 142.956 65.6943C142.869 62.2447 143.964 58.8684 146.06 56.1204C148.156 53.3724 151.129 51.4163 154.49 50.5735C156.513 50.0421 158.567 49.6387 160.641 49.3658C163.025 49.0652 165.447 49.3247 167.713 50.1236C169.979 50.9225 172.025 52.2385 173.688 53.9663C175.351 55.6941 176.584 57.7856 177.289 60.0733C177.994 62.361 178.151 64.7813 177.747 67.1403C175.776 78.7667 173.789 95.0053 175.516 106.341C175.595 106.849 175.532 107.369 175.333 107.843C175.133 108.318 174.806 108.728 174.387 109.029C173.918 109.37 173.353 109.555 172.772 109.557Z" fill="#CCCCCC"/>
<path d="M143.523 79.9855C143.141 79.9849 142.764 79.9064 142.414 79.755L134.439 76.3184C133.76 76.0247 133.225 75.4748 132.953 74.7892C132.68 74.1036 132.692 73.3384 132.985 72.6615L139.15 58.4836C139.516 57.6244 140.048 56.8455 140.717 56.1913C141.386 55.5371 142.177 55.0204 143.046 54.6707C143.915 54.321 144.845 54.1452 145.782 54.1532C146.72 54.1613 147.646 54.3531 148.509 54.7176C149.372 55.0822 150.154 55.6124 150.811 56.278C151.469 56.9436 151.987 57.7315 152.339 58.5968C152.69 59.4621 152.867 60.3878 152.859 61.321C152.85 62.2543 152.658 63.1768 152.292 64.0359C152.278 64.0672 152.265 64.0983 152.251 64.1293L146.086 78.3077C145.869 78.8054 145.511 79.2292 145.056 79.5272C144.601 79.8252 144.068 79.9845 143.523 79.9855Z" fill="#CCCCCC"/>
<path d="M161.778 44.5426C170.198 44.5426 177.023 37.747 177.023 29.3642C177.023 20.9813 170.198 14.1857 161.778 14.1857C153.358 14.1857 146.533 20.9813 146.533 29.3642C146.533 37.747 153.358 44.5426 161.778 44.5426Z" fill="#FEB8B8"/>
<path d="M146.258 21.9054C153.479 26.2942 161.62 28.9649 170.048 29.7096L167.54 26.7184C169.366 27.3905 171.287 27.7703 173.232 27.8437C174.206 27.8718 175.173 27.6722 176.056 27.261C176.938 26.8497 177.711 26.2382 178.314 25.4755C178.805 24.6839 179.097 23.7856 179.165 22.8573C179.232 21.9291 179.074 20.9983 178.702 20.1443C177.938 18.4405 176.748 16.9596 175.247 15.8428C172.585 13.7467 169.445 12.3388 166.104 11.7444C162.764 11.15 159.327 11.3876 156.101 12.4361C153.889 13.0945 151.907 14.3602 150.383 16.0882C148.938 17.8634 146.156 19.4451 146.895 21.608L146.258 21.9054Z" fill="#2F2E41"/>
<path d="M163.141 9.11886C166.18 6.05009 169.857 3.68182 173.914 2.18081C176.49 1.10221 179.314 0.753192 182.076 1.17229C184.799 1.71775 187.374 3.59292 188.133 6.25279C188.753 8.42757 188.113 10.7693 187.149 12.8176C186.185 14.866 184.899 16.7636 184.119 18.8873C183.323 21.0542 183.084 23.3847 183.423 25.667C183.761 27.9494 184.667 30.1114 186.058 31.9568C187.449 33.8022 189.281 35.2725 191.387 36.2342C193.493 37.196 195.808 37.6187 198.12 37.4641C195.445 37.8214 192.979 39.0731 190.364 39.7389C187.749 40.4046 184.663 40.3601 182.72 38.4946C180.663 36.5212 180.622 33.3128 180.722 30.4714L181.164 17.799C181.24 15.6449 181.304 13.4217 180.524 11.4104C179.743 9.39907 177.889 7.6389 175.724 7.65741C174.083 7.67107 172.631 8.66108 171.315 9.637C169.999 10.6129 168.606 11.654 166.972 11.7994C165.338 11.9448 163.471 10.742 163.594 9.11181" fill="#2F2E41"/>
<path d="M136.147 105.658C135.137 105.657 134.139 105.432 133.227 105.001C132.314 104.57 131.509 103.943 130.869 103.165C130.229 102.386 129.771 101.476 129.527 100.501C129.283 99.5246 129.259 98.507 129.458 97.5209C129.656 96.5348 130.072 95.6048 130.675 94.798C131.278 93.9911 132.053 93.3274 132.945 92.8547C133.836 92.3821 134.822 92.1122 135.831 92.0645C136.84 92.0168 137.847 92.1925 138.78 92.5789C139.06 92.6968 139.332 92.8341 139.594 92.9896L167.365 80.5776L168.145 73.0786L180.116 72.7596L180.037 85.2439C180.022 86.6903 179.54 88.0934 178.661 89.2451C177.782 90.3967 176.553 91.2353 175.157 91.6365L142.682 100.838C142.619 101.052 142.545 101.262 142.46 101.468C141.939 102.707 141.063 103.765 139.94 104.511C138.817 105.256 137.499 105.655 136.15 105.658L136.147 105.658Z" fill="#FEB8B8"/>
<path d="M179.102 78.8768C178.762 79.0483 178.39 79.1485 178.009 79.1711L169.335 79.7021C168.596 79.7464 167.869 79.4971 167.315 79.0088C166.76 78.5205 166.422 77.833 166.376 77.0973L165.424 61.6764C165.31 59.7964 165.95 57.9481 167.204 56.5377C168.458 55.1273 170.223 54.2701 172.111 54.1544C173.999 54.0388 175.856 54.6741 177.274 55.9208C178.692 57.1676 179.555 58.9238 179.674 60.8036L180.626 76.2244C180.659 76.7661 180.533 77.3057 180.262 77.7768C179.992 78.248 179.589 78.6303 179.103 78.8768H179.102Z" fill="#CCCCCC"/>
<path d="M161.637 102.891H109.83C109.395 102.891 109.043 103.242 109.043 103.674V106.433C109.043 106.866 109.395 107.217 109.83 107.217H161.637C162.071 107.217 162.424 106.866 162.424 106.433V103.674C162.424 103.242 162.071 102.891 161.637 102.891Z" fill="#3F3D56"/>
<path d="M89.1362 103.2V72.9187C89.1375 71.8538 89.563 70.8328 90.3194 70.0798C91.0757 69.3268 92.1012 68.9031 93.1708 68.9019H148.414C149.483 68.903 150.509 69.3266 151.265 70.0797C152.022 70.8327 152.447 71.8538 152.448 72.9187V103.2C152.447 104.265 152.022 105.286 151.265 106.039C150.509 106.793 149.483 107.216 148.414 107.217H93.1708C92.1012 107.216 91.0757 106.792 90.3194 106.039C89.563 105.286 89.1375 104.265 89.1362 103.2Z" fill="#3F3D56"/>
<path d="M121.457 91.7691C123.514 91.7691 125.181 90.109 125.181 88.0611C125.181 86.0132 123.514 84.353 121.457 84.353C119.4 84.353 117.732 86.0132 117.732 88.0611C117.732 90.109 119.4 91.7691 121.457 91.7691Z" fill="white"/>
</g>
<defs>
<clipPath id="clip0_368_830">
<rect width="412" height="279" fill="white" transform="translate(79 1)"/>
</clipPath>
</defs>
</svg>
