<svg width="412" height="279" viewBox="0 0 412 279" fill="none" xmlns="http://www.w3.org/2000/svg">
<g clip-path="url(#clip0_368_946)">
<path d="M364.622 131.022H53.2649V278.118H364.622V131.022Z" fill="#E6E6E6"/>
<path d="M355.719 143.636H62.1682V266.363H355.719V143.636Z" fill="white"/>
<path d="M306.628 166.479H299.026V174.047H306.628V166.479Z" fill="#E6E6E6"/>
<path d="M103.872 166.479H96.2704V174.047H103.872V166.479Z" fill="#9D5CFF"/>
<path d="M121.389 188.157H96.0504V213.385H121.389V188.157Z" fill="#E6E6E6"/>
<path d="M364.489 122.523H53.1321V135.693H364.489V122.523Z" fill="black"/>
<path d="M62.9617 134.47C64.3157 134.47 65.4133 133.378 65.4133 132.03C65.4133 130.681 64.3157 129.589 62.9617 129.589C61.6077 129.589 60.51 130.681 60.51 132.03C60.51 133.378 61.6077 134.47 62.9617 134.47Z" fill="white"/>
<path d="M72.2673 134.47C73.6213 134.47 74.719 133.378 74.719 132.03C74.719 130.681 73.6213 129.589 72.2673 129.589C70.9133 129.589 69.8157 130.681 69.8157 132.03C69.8157 133.378 70.9133 134.47 72.2673 134.47Z" fill="white"/>
<path d="M81.5733 134.47C82.9273 134.47 84.025 133.378 84.025 132.03C84.025 130.681 82.9273 129.589 81.5733 129.589C80.2193 129.589 79.1217 130.681 79.1217 132.03C79.1217 133.378 80.2193 134.47 81.5733 134.47Z" fill="white"/>
<path d="M412 278.119H0V279H412V278.119Z" fill="#E6E6E6"/>
<path d="M209.748 190.681H147.669V194.229H209.748V190.681Z" fill="#E6E6E6"/>
<path d="M243.533 203.623H147.669V207.171H243.533V203.623Z" fill="#9D5CFF"/>
<path d="M225.795 215.815H147.669V219.363H225.795V215.815Z" fill="#E6E6E6"/>
<path d="M193.278 227.963H147.669V231.511H193.278V227.963Z" fill="#E6E6E6"/>
<path d="M216.505 240.11H147.669V243.658H216.505V240.11Z" fill="#E6E6E6"/>
<path d="M319.72 166.479H312.118V174.047H319.72V166.479Z" fill="#E6E6E6"/>
<path d="M332.811 166.479H325.21V174.047H332.811V166.479Z" fill="#E6E6E6"/>
<path opacity="0.997" d="M317.373 231.51C325.899 231.51 332.811 224.629 332.811 216.141C332.811 207.652 325.899 200.771 317.373 200.771C308.847 200.771 301.936 207.652 301.936 216.141C301.936 224.629 308.847 231.51 317.373 231.51Z" fill="#9D5CFF"/>
<path d="M83.413 41.6172C93.0115 41.6172 100.793 33.8702 100.793 24.3137C100.793 14.7573 93.0115 7.01025 83.413 7.01025C73.8145 7.01025 66.0333 14.7573 66.0333 24.3137C66.0333 33.8702 73.8145 41.6172 83.413 41.6172Z" fill="#2F2E41"/>
<path d="M40.1614 172.365H32.5498L28.9294 143.142H40.1605L40.1614 172.365Z" fill="#FEB8B8"/>
<path d="M27.1163 170.199H41.7921V179.4H17.8757C17.8757 176.96 18.8493 174.619 20.5822 172.894C22.3152 171.169 24.6656 170.199 27.1163 170.199Z" fill="#2F2E41"/>
<path d="M28.2824 168.136L21.0222 165.868L26.3556 136.905L37.0712 140.254L28.2824 168.136Z" fill="#FEB8B8"/>
<path d="M16.4827 162.183L30.4856 166.558L27.7187 175.336L4.89966 168.206C5.26301 167.054 5.85084 165.983 6.62961 165.057C7.40837 164.13 8.36282 163.366 9.43844 162.806C10.5141 162.247 11.6898 161.904 12.8985 161.797C14.1073 161.69 15.3253 161.821 16.4831 162.183L16.4827 162.183Z" fill="#2F2E41"/>
<path d="M30.7585 156.475C30.4259 156.475 30.0961 156.415 29.7849 156.299L24.1846 154.209C23.5561 153.972 23.034 153.518 22.7133 152.93C22.3927 152.342 22.295 151.659 22.4379 151.005C23.8474 144.696 28.6511 123.214 31.2815 111.692C34.401 98.0253 79.9095 95.4857 81.8451 95.3843L82.0044 95.376L87.1237 101.778C88.9735 107.698 88.3872 112.316 85.381 115.503C76.6086 124.802 50.4181 119.031 47.2951 118.301L33.3752 154.684C33.1723 155.211 32.8137 155.664 32.3468 155.984C31.8798 156.304 31.3265 156.475 30.7598 156.475H30.7585Z" fill="#2F2E41"/>
<path d="M38.8276 160.801C38.495 160.801 38.1652 160.742 37.854 160.625L32.2555 158.535C31.6269 158.298 31.1047 157.844 30.7841 157.256C30.4635 156.668 30.3658 155.985 30.5088 155.331C31.9183 149.022 36.722 127.54 39.3524 116.018C42.4718 102.351 87.9803 99.8115 89.916 99.7101L90.0753 99.7018L95.1928 106.106C97.0426 112.026 96.4562 116.643 93.4501 119.83C84.6782 129.127 58.4872 123.359 55.3642 122.629L41.4425 159.01C41.2396 159.537 40.8811 159.99 40.4141 160.31C39.9472 160.63 39.3938 160.801 38.8271 160.801L38.8276 160.801Z" fill="#2F2E41"/>
<path d="M22.6304 71.7972C22.836 72.0711 23.0196 72.3607 23.1796 72.6634L53.7932 75.8744L58.2009 69.8585L68.1885 75.2933L59.5329 89.891L21.9878 80.3601C21.0406 81.2796 19.8346 81.8901 18.5303 82.1106C17.226 82.3311 15.8852 82.151 14.6862 81.5943C13.4872 81.0376 12.4869 80.1306 11.8182 78.9941C11.1496 77.8576 10.8443 76.5453 10.943 75.2318C11.0417 73.9183 11.5397 72.6658 12.3707 71.641C13.2018 70.6162 14.3265 69.8675 15.5954 69.4946C16.8642 69.1217 18.217 69.1423 19.4738 69.5535C20.7306 69.9647 21.8319 70.7471 22.6313 71.7967L22.6304 71.7972Z" fill="#FEB8B8"/>
<path d="M93.7718 108.557C93.3292 108.556 92.8931 108.45 92.4995 108.249C86.378 105.15 74.4578 99.7828 63.4042 98.6597C63.0259 98.6228 62.6596 98.5075 62.3286 98.3213C61.9977 98.1351 61.7096 97.8821 61.4827 97.5785C61.2514 97.2716 61.0861 96.9206 60.9971 96.5474C60.9081 96.1741 60.8973 95.7866 60.9654 95.409C61.9629 89.9117 64.2508 75.9131 63.956 64.6943C63.8693 61.2447 64.9639 57.8684 67.06 55.1204C69.1561 52.3724 72.129 50.4163 75.4898 49.5735C77.5126 49.0421 79.5671 48.6387 81.6411 48.3658C84.0255 48.0652 86.4475 48.3247 88.7131 49.1236C90.9787 49.9225 93.0248 51.2385 94.6877 52.9663C96.3505 54.6941 97.5838 56.7856 98.2888 59.0733C98.9937 61.361 99.1507 63.7813 98.7472 66.1403C96.7762 77.7667 94.7888 94.0053 96.516 105.341C96.5953 105.849 96.5318 106.369 96.3326 106.843C96.1333 107.318 95.8061 107.728 95.3871 108.029C94.9183 108.37 94.3528 108.555 93.7718 108.557Z" fill="#CCCCCC"/>
<path d="M64.5229 78.9855C64.1413 78.9849 63.7639 78.9064 63.4139 78.755L55.439 75.3184C54.7597 75.0247 54.2251 74.4748 53.9526 73.7892C53.6801 73.1036 53.6918 72.3384 53.9852 71.6615L60.1497 57.4836C60.5159 56.6244 61.0485 55.8455 61.717 55.1913C62.3855 54.5371 63.1769 54.0204 64.046 53.6707C64.9151 53.321 65.8449 53.1452 66.7822 53.1532C67.7196 53.1613 68.6462 53.3531 69.5091 53.7176C70.372 54.0822 71.1543 54.6124 71.8114 55.278C72.4685 55.9436 72.9875 56.7315 73.3387 57.5968C73.69 58.4621 73.8666 59.3878 73.8585 60.321C73.8504 61.2543 73.6578 62.1768 73.2916 63.0359C73.2783 63.0672 73.2647 63.0983 73.251 63.1293L67.0865 77.3077C66.8695 77.8054 66.5113 78.2292 66.056 78.5272C65.6006 78.8252 65.0678 78.9845 64.5229 78.9855Z" fill="#CCCCCC"/>
<path d="M82.7779 43.5426C91.1977 43.5426 98.0232 36.747 98.0232 28.3642C98.0232 19.9813 91.1977 13.1857 82.7779 13.1857C74.3582 13.1857 67.5326 19.9813 67.5326 28.3642C67.5326 36.747 74.3582 43.5426 82.7779 43.5426Z" fill="#FEB8B8"/>
<path d="M67.2582 20.9054C74.4793 25.2942 82.6203 27.9649 91.0475 28.7096L88.5397 25.7184C90.3655 26.3905 92.2868 26.7703 94.232 26.8437C95.206 26.8718 96.173 26.6722 97.0555 26.261C97.9381 25.8497 98.7114 25.2382 99.3136 24.4755C99.8053 23.6839 100.097 22.7856 100.165 21.8573C100.232 20.9291 100.074 19.9983 99.7017 19.1443C98.9376 17.4405 97.7483 15.9596 96.2469 14.8428C93.5855 12.7467 90.4446 11.3388 87.1041 10.7444C83.7636 10.15 80.3273 10.3876 77.1015 11.4361C74.8886 12.0945 72.9068 13.3602 71.383 15.0882C69.9377 16.8634 67.1555 18.4451 67.8954 20.608L67.2582 20.9054Z" fill="#2F2E41"/>
<path d="M84.1409 8.11886C87.1796 5.05009 90.8571 2.68182 94.9144 1.18081C97.4896 0.102214 100.314 -0.246808 103.076 0.172291C105.799 0.717748 108.374 2.59292 109.133 5.25279C109.753 7.42757 109.113 9.76932 108.149 11.8176C107.185 13.866 105.899 15.7636 105.119 17.8873C104.323 20.0542 104.084 22.3847 104.423 24.667C104.761 26.9494 105.667 29.1114 107.058 30.9568C108.449 32.8022 110.281 34.2725 112.387 35.2342C114.493 36.196 116.808 36.6187 119.12 36.4641C116.445 36.8214 113.979 38.0731 111.364 38.7389C108.749 39.4046 105.663 39.3601 103.72 37.4946C101.663 35.5212 101.622 32.3128 101.722 29.4714L102.164 16.799C102.24 14.6449 102.304 12.4217 101.524 10.4104C100.743 8.39907 98.8888 6.6389 96.7239 6.65741C95.083 6.67107 93.631 7.66108 92.3149 8.637C90.9988 9.61292 89.6062 10.654 87.9719 10.7994C86.3376 10.9448 84.4714 9.74201 84.5936 8.11181" fill="#2F2E41"/>
<path d="M57.1467 104.658C56.1366 104.657 55.1393 104.432 54.2267 104.001C53.3141 103.57 52.509 102.943 51.8692 102.165C51.2294 101.386 50.771 100.476 50.527 99.5005C50.2829 98.5246 50.2593 97.507 50.4578 96.5209C50.6563 95.5348 51.072 94.6048 51.675 93.798C52.278 92.9911 53.0532 92.3274 53.9448 91.8547C54.8364 91.3821 55.8222 91.1122 56.8312 91.0645C57.8401 91.0168 58.8472 91.1925 59.7798 91.5789C60.0603 91.6968 60.3322 91.8341 60.5936 91.9896L88.3649 79.5776L89.1451 72.0786L101.116 71.7596L101.037 84.2439C101.022 85.6903 100.54 87.0934 99.6606 88.2451C98.7815 89.3967 97.5529 90.2353 96.157 90.6365L63.6816 99.8383C63.6189 100.052 63.5451 100.262 63.4603 100.468C62.9393 101.707 62.0625 102.765 60.94 103.511C59.8175 104.256 58.499 104.655 57.1498 104.658L57.1467 104.658Z" fill="#FEB8B8"/>
<path d="M100.102 77.8768C99.7619 78.0483 99.3897 78.1485 99.0088 78.1711L90.3351 78.7021C89.596 78.7464 88.8693 78.4971 88.3146 78.0088C87.7598 77.5205 87.4223 76.833 87.3759 76.0973L86.424 60.6764C86.31 58.7964 86.9502 56.9481 88.204 55.5377C89.4578 54.1273 91.2227 53.2701 93.111 53.1544C94.9992 53.0388 96.8563 53.6741 98.2744 54.9208C99.6924 56.1676 100.555 57.9238 100.674 59.8036L101.626 75.2244C101.659 75.7661 101.533 76.3057 101.262 76.7768C100.992 77.248 100.589 77.6303 100.103 77.8768H100.102Z" fill="#CCCCCC"/>
<path d="M82.6368 101.891H30.8297C30.3951 101.891 30.0428 102.242 30.0428 102.674V105.433C30.0428 105.866 30.3951 106.217 30.8297 106.217H82.6368C83.0713 106.217 83.4236 105.866 83.4236 105.433V102.674C83.4236 102.242 83.0713 101.891 82.6368 101.891Z" fill="#3F3D56"/>
<path d="M10.1362 102.2V71.9187C10.1375 70.8538 10.563 69.8328 11.3194 69.0798C12.0757 68.3268 13.1012 67.9031 14.1708 67.9019H69.4138C70.4835 67.903 71.509 68.3266 72.2654 69.0797C73.0218 69.8327 73.4472 70.8538 73.4484 71.9187V102.2C73.4472 103.265 73.0218 104.286 72.2654 105.039C71.509 105.793 70.4835 106.216 69.4138 106.217H14.1708C13.1012 106.216 12.0757 105.792 11.3194 105.039C10.563 104.286 10.1375 103.265 10.1362 102.2Z" fill="#3F3D56"/>
<path d="M42.4568 90.7691C44.5137 90.7691 46.1812 89.109 46.1812 87.0611C46.1812 85.0132 44.5137 83.353 42.4568 83.353C40.3999 83.353 38.7324 85.0132 38.7324 87.0611C38.7324 89.109 40.3999 90.7691 42.4568 90.7691Z" fill="white"/>
</g>
<defs>
<clipPath id="clip0_368_946">
<rect width="412" height="279" fill="white"/>
</clipPath>
</defs>
</svg>
